<?xml version="1.0" standalone="no"?>
<!DOCTYPE svg PUBLIC "-//W3C//DTD SVG 20010904//EN"
 "http://www.w3.org/TR/2001/REC-SVG-20010904/DTD/svg10.dtd">
<svg version="1.0" xmlns="http://www.w3.org/2000/svg"
 width="501.000000pt" height="501.000000pt" viewBox="0 0 501.000000 501.000000"
 preserveAspectRatio="xMidYMid meet">
<metadata>
Created by potrace 1.11, written by Peter Selinger 2001-2013
</metadata>
<g transform="translate(0.000000,501.000000) scale(0.100000,-0.100000)"
fill="#000000" stroke="none">
<path d="M557 4838 c-191 -27 -343 -157 -399 -342 l-21 -70 0 -1900 c1 -1046
3 -1917 6 -1936 30 -189 182 -350 374 -396 40 -9 498 -12 2009 -12 1657 0
1966 3 2018 15 163 38 303 172 352 338 17 57 18 164 18 1980 0 1781 -2 1924
-18 1976 -23 79 -77 166 -137 221 -56 54 -171 113 -239 124 -56 9 -3899 12
-3963 2z"/>
</g>
</svg>
